#!OML:ASF I:\Actors\actors\Patient Classification 2\Patient 1\Session 1\actor1.ASF
:FULLY-SPECIFIED
:DEGREES
126
root -0.470084 18.6902 5.01313 3.97451 12.8428 -2.4323
lowerback 15.5937 1.76429 0.365307
upperback 0.223741 2.68116 3.00404
thorax -8.66032 1.35015 2.41107
lowerneck -18.2498 -7.66474 -8.57779
upperneck 20.012 -9.49007 5.51448
head 10.0709 -4.41856 1.97354
rclavicle -1.66979e-014 3.18055e-015
rhumerus -21.0959 8.79257 -43.0837
rradius 132.117
rwrist -5.41477
rhand -15.2746 -33.4452
rfingers 7.12502
rthumb 10.8999 -63.1422
lclavicle -1.66979e-014 3.18055e-015
lhumerus 24.312 -50.7287 57.0546
lradius 106.951
lwrist 29.6381
lhand -8.81574 -27.8356
lfingers 7.12502
lthumb 17.1238 1.42983
rfemur 3.56605 -8.26323 15.5545
rtibia 7.95139e-016
rfoot -17.0753 -14.469
rtoes -7.81793
lfemur -17.7356 -7.20368 -10.6343
ltibia 29.3607
lfoot -16.5342 2.86153
ltoes -57.081
127
root -0.505371 18.7122 4.95268 4.21074 14.2059 -2.62626
lowerback 16.5172 2.3341 1.30821
upperback 0.171364 3.57813 2.40367
thorax -9.17655 1.71903 0.990341
lowerneck -17.4765 -8.83468 -9.55134
upperneck 18.8069 -11.485 8.1693
head 9.89623 -5.14216 2.76346
rclavicle -2.18663e-015 9.54166e-015
rhumerus -15.6354 4.38501 -37.1857
rradius 129.304
rwrist -5.32186
rhand -12.6239 -31.0958
rfingers 7.12502
rthumb 13.4558 -60.6412
lclavicle -2.18663e-015 9.54166e-015
lhumerus 27.9864 -51.8206 55.3841
lradius 107.34
lwrist 29.5697
lhand -8.86924 -27.929
lfingers 7.12502
lthumb 17.0723 1.3409
rfemur 3.1643 -9.62651 15.9037
rtibia 3.18055e-015
rfoot -16.7623 -14.3686
rtoes -6.31621
lfemur -18.7462 -7.51159 -10.2948
ltibia 29.4289
lfoot -15.8334 2.58542
ltoes -57.3509
128
root -0.532609 18.7228 4.88205 4.35039 14.6178 -2.635
lowerback 17.1028 2.93623 1.95588
upperback 0.380896 4.45279 1.83022
thorax -9.18833 2.09107 -0.226253
lowerneck -17.0853 -9.63467 -9.66274
upperneck 18.0566 -12.8837 9.60306
head 9.81541 -5.66383 3.06373
rclavicle -6.63941e-014 -1.39149e-014
rhumerus -6.07886 1.50753 -31.9654
rradius 121.875
rwrist -5.11192
rhand -16.4754 -28.9172
rfingers 7.12502
rthumb 9.74147 -58.6719
lclavicle -6.63941e-014 -1.39149e-014
lhumerus 30.3799 -52.2565 54.7018
lradius 107.749
lwrist 29.2985
lhand -9.18938 -28.451
lfingers 7.12502
lthumb 16.7641 0.845253
rfemur 2.69233 -10.0451 16.0075
rtibia 1.59028e-014
rfoot -16.2791 -14.4903
rtoes -5.03315
lfemur -19.3625 -7.58932 -10.2225
ltibia 29.5207
lfoot -15.4895 2.68122
ltoes -57.4666
129
root -0.549728 18.7232 4.81248 4.41552 13.9722 -2.41377
lowerback 17.3053 3.59951 1.98575
upperback 0.794093 5.29583 1.52857
thorax -8.80573 2.49375 -0.769323
lowerneck -17.3034 -10.0244 -9.26431
upperneck 18.1648 -13.4982 9.48947
head 9.91959 -5.92011 2.85115
rclavicle -2.27608e-014 -5.56597e-015
rhumerus 6.09132 -0.782489 -27.8269
rradius 110.098
rwrist -6.94872
rhand -20.0793 -24.6556
rfingers 7.12502
rthumb 6.26329 -54.543
lclavicle -2.27608e-014 -5.56597e-015
lhumerus 30.9234 -52.1229 55.648
lradius 108.184
lwrist 29.3458
lhand -10.083 -30.2478
lfingers 7.12502
lthumb 15.9037 -0.880828
rfemur 2.23925 -9.41948 15.7908
rtibia -9.54166e-015
rfoot -15.8431 -14.7093
rtoes -3.93736
lfemur -19.4883 -7.32268 -10.4921
ltibia 29.6112
lfoot -15.5973 3.26806
ltoes -57.4647
130
root -0.560833 18.7173 4.75203 4.30672 12.5064 -2.00606
lowerback 17.8787 4.23896 2.12093
upperback 0.983281 6.12648 1.0348
thorax -8.82919 2.87221 -1.6089
lowerneck -17.7675 -10.1783 -8.84793
upperneck 19.1217 -13.7498 8.94456
head 10.294 -6.0251 2.53317
rclavicle 2.69353e-014 1.55052e-014
rhumerus 18.9859 -2.31347 -25.0711
rradius 94.991
rwrist -8.01621
rhand -18.6759 -28.484
rfingers 7.12502
rthumb 7.61795 -58.3268
lclavicle 2.69353e-014 1.55052e-014
lhumerus 30.9107 -52.2375 57.3804
lradius 108.273
lwrist 29.9226
lhand -13.0912 -29.9053
lfingers 7.12502
lthumb 13.0053 -0.330633
rfemur 1.99635 -7.97603 15.294
rtibia -7.15625e-015
rfoot -15.4119 -14.8896
rtoes -3.89291
lfemur -19.0535 -6.36119 -11.0846
ltibia 29.6404
lfoot -15.8222 3.87018
ltoes -57.2622
131
root -0.569683 18.7085 4.70603 4.01747 10.6401 -1.45677
lowerback 18.206 4.78528 1.78399
upperback 1.34003 6.74113 0.702025
thorax -8.5952 3.17924 -1.93703
lowerneck -18.1055 -10.0657 -8.41833
upperneck 19.8022 -13.5818 8.27812
head 10.4969 -5.96346 2.24699
rclavicle 7.72278e-014 5.1684e-015
rhumerus 32.327 -2.75605 -23.2468
rradius 74.5221
rwrist -8.27798
rhand -16.9563 -32.5044
rfingers 7.12502
rthumb 9.27749 -62.2803
lclavicle 7.72278e-014 5.1684e-015
lhumerus 29.6419 -51.7682 60.06
lradius 107.998
lwrist 30.1452
lhand -14.9917 -31.9411
lfingers 7.12502
lthumb 11.1728 -2.25856
rfemur 1.99698 -6.12526 14.5991
rtibia -7.95139e-015
rfoot -14.9847 -14.9215
rtoes -4.5287
lfemur -18.1904 -4.89647 -11.8797
ltibia 29.5733
lfoot -16.0695 4.33922
ltoes -57.1039
132
root -0.576945 18.6979 4.67377 3.77742 8.77583 -0.821727
lowerback 18.8954 5.30427 1.85406
upperback 1.30801 7.3806 -0.0306042
thorax -8.87536 3.45531 -2.98695
lowerneck -17.806 -10.0549 -8.0657
upperneck 20.0689 -13.7083 8.26127
head 10.5217 -5.9999 2.17692
rclavicle 2.03754e-014 -1.03368e-014
rhumerus 41.9682 -2.56753 -22.7236
rradius 50.5485
rwrist -7.74192
rhand -20.4056 -36.4797
rfingers 7.12502
rthumb 5.94827 -66.3762
lclavicle 2.03754e-014 -1.03368e-014
lhumerus 29.8042 -51.8924 61.2484
lradius 107.215
lwrist 30.2478
lhand -16.6169 -31.2293
lfingers 7.12502
lthumb 9.60494 -1.4683
rfemur 1.97961 -4.28205 13.824
rtibia 1.59028e-015
rfoot -14.7143 -14.8283
rtoes -4.4228
lfemur -17.3272 -3.46043 -12.7136
ltibia 29.4209
lfoot -16.4382 4.87991
ltoes -57.1706
133
root -0.583822 18.6879 4.6559 3.79202 7.42278 -0.173221
lowerback 19.1376 5.66618 1.74601
upperback 1.292 7.77014 -0.723418
thorax -8.91789 3.62936 -3.79456
lowerneck -17.2225 -10.0823 -8.03969
upperneck 19.6207 -13.9457 9.0324
head 10.3381 -6.05195 2.42818
rclavicle 4.3832e-014 1.31198e-014
rhumerus 41.9682 -2.56753 -22.7236
rradius 50.5485
rwrist -7.74192
rhand -20.4056 -36.4797
rfingers 7.12502
rthumb 5.94827 -66.3762
lclavicle 4.3832e-014 1.31198e-014
lhumerus 30.1569 -51.5821 62.1376
lradius 105.883
lwrist 28.7243
lhand -16.7256 -30.701
lfingers 7.12502
lthumb 9.50008 -0.935173
rfemur -0.374922 -2.973 13.0625
rtibia 4.33385
rfoot -16.1636 -13.3924
rtoes -4.25866
lfemur -16.8307 -2.49464 -13.478
ltibia 29.2045
lfoot -16.8002 5.29133
ltoes -57.1944
134
root -0.592074 18.6805 4.65419 4.01646 7.07661 0.34838
lowerback 18.9796 5.65394 1.68838
upperback 1.33834 7.67822 -1.3799
thorax -8.69836 3.58598 -4.42138
lowerneck -16.6965 -10.0775 -7.92253
upperneck 18.7124 -14.1922 10.1781
head 10.0322 -6.07829 2.79046
rclavicle -7.8023e-015 1.09332e-014
rhumerus 41.9682 -2.56753 -22.7236
rradius 50.5485
rwrist -7.74192
rhand -20.4056 -36.4797
rfingers 7.12502
rthumb 5.94827 -66.3762
lclavicle -7.8023e-015 1.09332e-014
lhumerus 31.1345 -51.1323 62.1019
lradius 104.299
lwrist 27.3582
lhand -16.4539 -30.7126
lfingers 7.12502
lthumb 9.76229 -0.958826
rfemur -2.16101 -2.68691 12.4713
rtibia 7.42742
rfoot -17.0574 -12.4913
rtoes -4.81174
lfemur -16.7772 -2.28536 -14.0369
ltibia 28.9766
lfoot -17.0122 5.40979
ltoes -57.1701
